{
	"asset":{
		"generator":"Khronos glTF Blender I/O v3.5.30",
		"version":"2.0"
	},
	"scene":0,
	"scenes":[
		{
			"name":"Scene",
			"nodes":[
				0
			]
		}
	],
	"nodes":[
		{
			"mesh":0,
			"name":"Arrow"
		}
	],
	"meshes":[
		{
			"name":"Arrow",
			"primitives":[
				{
					"attributes":{
						"POSITION":0,
						"TEXCOORD_0":1,
						"NORMAL":2
					},
					"indices":3
				}
			]
		}
	],
	"accessors":[
		{
			"bufferView":0,
			"componentType":5126,
			"count":40,
			"max":[
				0.141421377658844,
				0.1414213925600052,
				7.450580596923828e-09
			],
			"min":[
				-0.1414213925600052,
				-0.141421377658844,
				-0.9999999403953552
			],
			"type":"VEC3"
		},
		{
			"bufferView":1,
			"componentType":5126,
			"count":40,
			"type":"VEC2"
		},
		{
			"bufferView":2,
			"componentType":5126,
			"count":40,
			"type":"VEC3"
		},
		{
			"bufferView":3,
			"componentType":5123,
			"count":66,
			"type":"SCALAR"
		}
	],
	"bufferViews":[
		{
			"buffer":0,
			"byteLength":480,
			"byteOffset":0,
			"target":34962
		},
		{
			"buffer":0,
			"byteLength":320,
			"byteOffset":480,
			"target":34962
		},
		{
			"buffer":0,
			"byteLength":480,
			"byteOffset":800,
			"target":34962
		},
		{
			"buffer":0,
			"byteLength":132,
			"byteOffset":1280,
			"target":34963
		}
	],
	"buffers":[
		{
			"byteLength":1412,
			"uri":"data:application/octet-stream;base64,"
		}
	]
}
