{
	"asset":{
		"copyright":"CC0 dedication by Aziroshin in 2023, Switzerland",
		"generator":"Khronos glTF Blender I/O v3.5.30",
		"version":"2.0"
	},
	"extensionsUsed":[
		"KHR_materials_specular",
		"KHR_materials_ior"
	],
	"scene":0,
	"scenes":[
		{
			"name":"Scene",
			"nodes":[
				7
			]
		}
	],
	"nodes":[
		{
			"mesh":0,
			"name":"Facade_D_Mesh",
			"rotation":[
				0.7071068286895752,
				0,
				0,
				0.7071068286895752
			],
			"translation":[
				0.9999999403953552,
				1.000000238418579,
				0
			]
		},
		{
			"name":"Bottom_Left_Front_Tail",
			"rotation":[
				3.931256173927977e-07,
				-5.811447772430256e-05,
				-5.811447772430256e-05,
				1
			],
			"translation":[
				0,
				0.10000002384185791,
				0
			]
		},
		{
			"children":[
				1
			],
			"name":"Bottom_Left_Front"
		},
		{
			"name":"Bottom_Right_Front_Tail",
			"translation":[
				0,
				0.10000002384185791,
				0
			]
		},
		{
			"children":[
				3
			],
			"name":"Bottom_Right_Front",
			"translation":[
				1.999999761581421,
				0,
				0
			]
		},
		{
			"name":"Top_Left_Front_Tail",
			"translation":[
				0,
				0.10000002384185791,
				0
			]
		},
		{
			"children":[
				5
			],
			"name":"Top_Left_Front",
			"translation":[
				0,
				1.75,
				2.0255086496945296e-10
			]
		},
		{
			"children":[
				0,
				2,
				4,
				6
			],
			"name":"Facade_D",
			"translation":[
				-1.150369644165039e-05,
				0,
				0
			]
		}
	],
	"materials":[
		{
			"doubleSided":true,
			"extensions":{
				"KHR_materials_specular":{
					"specularColorTexture":{
						"index":0
					}
				},
				"KHR_materials_ior":{
					"ior":1.4500000476837158
				}
			},
			"name":"Material.001",
			"normalTexture":{
				"index":1
			},
			"pbrMetallicRoughness":{
				"baseColorTexture":{
					"index":2
				},
				"metallicFactor":0,
				"roughnessFactor":0.5
			}
		}
	],
	"meshes":[
		{
			"name":"Plane",
			"primitives":[
				{
					"attributes":{
						"POSITION":0,
						"TEXCOORD_0":1,
						"NORMAL":2
					},
					"indices":3,
					"material":0
				}
			]
		}
	],
	"textures":[
		{
			"sampler":0,
			"source":0
		},
		{
			"sampler":0,
			"source":1
		},
		{
			"sampler":0,
			"source":2
		}
	],
	"images":[
		{
			"mimeType":"image/png",
			"name":"Image",
			"uri":"textures/Image.png"
		},
		{
			"mimeType":"image/png",
			"name":"facade_d_1024x1024_1.6_normal",
			"uri":"textures/facade_d_1024x1024_1_6_normal.png"
		},
		{
			"mimeType":"image/png",
			"name":"facade_d_1024x1024_1.6",
			"uri":"textures/facade_d_1024x1024_1_6.png"
		}
	],
	"skins":[
		{
			"inverseBindMatrices":4,
			"joints":[
				2,
				1,
				4,
				3,
				6,
				5
			],
			"name":"Facade_D"
		}
	],
	"accessors":[
		{
			"bufferView":0,
			"componentType":5126,
			"count":1686,
			"max":[
				1.009459137916565,
				0.06596620380878448,
				1.0000003576278687
			],
			"min":[
				-1.009459137916565,
				-0.03289804235100746,
				-1
			],
			"type":"VEC3"
		},
		{
			"bufferView":1,
			"componentType":5126,
			"count":1686,
			"type":"VEC2"
		},
		{
			"bufferView":2,
			"componentType":5126,
			"count":1686,
			"type":"VEC3"
		},
		{
			"bufferView":3,
			"componentType":5123,
			"count":3324,
			"type":"SCALAR"
		},
		{
			"bufferView":4,
			"componentType":5126,
			"count":6,
			"type":"MAT4"
		}
	],
	"bufferViews":[
		{
			"buffer":0,
			"byteLength":20232,
			"byteOffset":0,
			"target":34962
		},
		{
			"buffer":0,
			"byteLength":13488,
			"byteOffset":20232,
			"target":34962
		},
		{
			"buffer":0,
			"byteLength":20232,
			"byteOffset":33720,
			"target":34962
		},
		{
			"buffer":0,
			"byteLength":6648,
			"byteOffset":53952,
			"target":34963
		},
		{
			"buffer":0,
			"byteLength":384,
			"byteOffset":60600
		}
	],
	"samplers":[
		{
			"magFilter":9729,
			"minFilter":9987
		}
	],
	"buffers":[
		{
			"byteLength":60984,
			"uri":"facade_d.bin"
		}
	]
}
