{
	"asset":{
		"copyright":"CC0 dedication by Aziroshin in 2023, Switzerland",
		"generator":"Khronos glTF Blender I/O v3.5.30",
		"version":"2.0"
	},
	"extensionsUsed":[
		"KHR_materials_specular",
		"KHR_materials_ior"
	],
	"scene":0,
	"scenes":[
		{
			"name":"Scene",
			"nodes":[
				9
			]
		}
	],
	"nodes":[
		{
			"mesh":0,
			"name":"Roof_DoublePitched_Side_Mesh",
			"scale":[
				0.28323447704315186,
				0.28323447704315186,
				0.28323447704315186
			]
		},
		{
			"name":"Bottom_Left_Front_Tail",
			"translation":[
				0,
				0.10000000894069672,
				7.105427357601002e-15
			]
		},
		{
			"children":[
				1
			],
			"name":"Bottom_Left_Front",
			"translation":[
				0,
				0,
				1.0829817398416708e-07
			]
		},
		{
			"name":"Bottom_Right_Front_Tail",
			"rotation":[
				0,
				1.1920928244535389e-07,
				0,
				1
			],
			"translation":[
				2.9802322387695312e-08,
				0.10000000894069672,
				7.105427357601002e-15
			]
		},
		{
			"children":[
				3
			],
			"name":"Bottom_Right_Front",
			"translation":[
				0.5000000596046448,
				-5.960463411724959e-08,
				1.0821683815720462e-07
			]
		},
		{
			"name":"Top_Left_Back_Tail",
			"translation":[
				2.842170943040401e-14,
				0.10000014305114746,
				-2.9802322387695312e-08
			]
		},
		{
			"children":[
				5
			],
			"name":"Top_Left_Back",
			"translation":[
				3.874302478834579e-07,
				1.1502504348754883,
				-0.49999943375587463
			]
		},
		{
			"name":"Top_Right_Back_Tail",
			"translation":[
				5.960464477539063e-08,
				0.10000014305114746,
				-5.960464477539063e-08
			]
		},
		{
			"children":[
				7
			],
			"name":"Top_Right_Back",
			"translation":[
				0.5000004768371582,
				1.1502509117126465,
				-0.5009705424308777
			]
		},
		{
			"children":[
				0,
				2,
				4,
				6,
				8
			],
			"name":"Roof_DoublePitched_Side"
		}
	],
	"materials":[
		{
			"doubleSided":true,
			"extensions":{
				"KHR_materials_specular":{
					"specularColorFactor":[
						0.118567882488869,
						0.118567882488869,
						0.118567882488869
					]
				},
				"KHR_materials_ior":{
					"ior":1.4500000476837158
				}
			},
			"name":"rect_roof",
			"normalTexture":{
				"index":0
			},
			"pbrMetallicRoughness":{
				"baseColorTexture":{
					"index":1
				},
				"metallicFactor":0,
				"roughnessFactor":0.800000011920929
			}
		}
	],
	"meshes":[
		{
			"name":"Mesh",
			"primitives":[
				{
					"attributes":{
						"POSITION":0,
						"TEXCOORD_0":1,
						"NORMAL":2
					},
					"indices":3,
					"material":0
				}
			]
		}
	],
	"textures":[
		{
			"sampler":0,
			"source":0
		},
		{
			"sampler":0,
			"source":1
		}
	],
	"images":[
		{
			"mimeType":"image/png",
			"name":"01392-3252335151-tiled roof, doubleroman, grovebury, interlocked tiles, interocked roof tiles, tiled roof, regent, renown, rounded tiles, medieva_normal",
			"uri":"textures/01392-3252335151-tiled%20roof%20doubleroman%20grovebury%20interlocked%20tiles%20interocked%20roof%20tiles%20tiled%20roof%20regent%20renown%20rounded%20tiles%20medieva_normal.png"
		},
		{
			"mimeType":"image/png",
			"name":"01392-3252335151-tiled roof, doubleroman, grovebury, interlocked tiles, interocked roof tiles, tiled roof, regent, renown, rounded tiles, medieva",
			"uri":"textures/01392-3252335151-tiled%20roof%20doubleroman%20grovebury%20interlocked%20tiles%20interocked%20roof%20tiles%20tiled%20roof%20regent%20renown%20rounded%20tiles%20medieva.png"
		}
	],
	"skins":[
		{
			"inverseBindMatrices":4,
			"joints":[
				2,
				1,
				4,
				3,
				6,
				5,
				8,
				7
			],
			"name":"Roof_DoublePitched_Side"
		}
	],
	"accessors":[
		{
			"bufferView":0,
			"componentType":5126,
			"count":8,
			"max":[
				1.7653238773345947,
				4.061125755310059,
				0
			],
			"min":[
				-6.033526460669236e-07,
				-9.123345989792142e-08,
				-1.7704620361328125
			],
			"type":"VEC3"
		},
		{
			"bufferView":1,
			"componentType":5126,
			"count":8,
			"type":"VEC2"
		},
		{
			"bufferView":2,
			"componentType":5126,
			"count":8,
			"type":"VEC3"
		},
		{
			"bufferView":3,
			"componentType":5123,
			"count":12,
			"type":"SCALAR"
		},
		{
			"bufferView":4,
			"componentType":5126,
			"count":8,
			"type":"MAT4"
		}
	],
	"bufferViews":[
		{
			"buffer":0,
			"byteLength":96,
			"byteOffset":0,
			"target":34962
		},
		{
			"buffer":0,
			"byteLength":64,
			"byteOffset":96,
			"target":34962
		},
		{
			"buffer":0,
			"byteLength":96,
			"byteOffset":160,
			"target":34962
		},
		{
			"buffer":0,
			"byteLength":24,
			"byteOffset":256,
			"target":34963
		},
		{
			"buffer":0,
			"byteLength":512,
			"byteOffset":280
		}
	],
	"samplers":[
		{
			"magFilter":9729,
			"minFilter":9987
		}
	],
	"buffers":[
		{
			"byteLength":792,
			"uri":"roof_double_pitched_side.bin"
		}
	]
}
