{
	"asset":{
		"copyright":"CC0 dedication by Aziroshin in 2023, Switzerland",
		"generator":"Khronos glTF Blender I/O v3.5.30",
		"version":"2.0"
	},
	"extensionsUsed":[
		"KHR_materials_specular",
		"KHR_materials_ior"
	],
	"scene":0,
	"scenes":[
		{
			"name":"Scene",
			"nodes":[
				9
			]
		}
	],
	"nodes":[
		{
			"mesh":0,
			"name":"Roof_DoublePitched_Corner_Mesh"
		},
		{
			"name":"Bottom_Left_Front_Tail",
			"translation":[
				0,
				0.10000003129243851,
				7.105427357601002e-15
			]
		},
		{
			"children":[
				1
			],
			"name":"Bottom_Left_Front",
			"translation":[
				5.960465188081798e-08,
				1.1920928955078125e-07,
				7.729978079851207e-08
			]
		},
		{
			"name":"Bottom_Right_Front_Tail",
			"translation":[
				5.960464477539063e-08,
				0.10000003129243851,
				7.105427357601002e-15
			]
		},
		{
			"children":[
				3
			],
			"name":"Bottom_Right_Front",
			"translation":[
				0.5000001192092896,
				1.1920928955078125e-07,
				7.650672984027551e-08
			]
		},
		{
			"name":"Bottom_Left_Back_Tail",
			"translation":[
				0,
				0.10000003129243851,
				-2.9802322387695312e-08
			]
		},
		{
			"children":[
				5
			],
			"name":"Bottom_Left_Back",
			"translation":[
				5.960465188081798e-08,
				1.1920928955078125e-07,
				-0.4999999403953552
			]
		},
		{
			"name":"Top_Right_Back_Tail",
			"translation":[
				2.9802322387695312e-08,
				0.10000026226043701,
				-2.9802322387695312e-08
			]
		},
		{
			"children":[
				7
			],
			"name":"Top_Right_Back",
			"translation":[
				0.4999997317790985,
				1.1502504348754883,
				-0.49999964237213135
			]
		},
		{
			"children":[
				0,
				2,
				4,
				6,
				8
			],
			"name":"Roof_DoublePitched_Corner"
		}
	],
	"materials":[
		{
			"doubleSided":true,
			"extensions":{
				"KHR_materials_specular":{
					"specularColorFactor":[
						0.118567882488869,
						0.118567882488869,
						0.118567882488869
					]
				},
				"KHR_materials_ior":{
					"ior":1.4500000476837158
				}
			},
			"name":"rect_roof",
			"normalTexture":{
				"index":0
			},
			"pbrMetallicRoughness":{
				"baseColorTexture":{
					"index":1
				},
				"metallicFactor":0,
				"roughnessFactor":0.800000011920929
			}
		}
	],
	"meshes":[
		{
			"name":"Mesh",
			"primitives":[
				{
					"attributes":{
						"POSITION":0,
						"TEXCOORD_0":1,
						"NORMAL":2
					},
					"indices":3,
					"material":0
				}
			]
		}
	],
	"textures":[
		{
			"sampler":0,
			"source":0
		},
		{
			"sampler":0,
			"source":1
		}
	],
	"images":[
		{
			"mimeType":"image/png",
			"name":"01392-3252335151-tiled roof, doubleroman, grovebury, interlocked tiles, interocked roof tiles, tiled roof, regent, renown, rounded tiles, medieva_normal",
			"uri":"textures/01392-3252335151-tiled%20roof%20doubleroman%20grovebury%20interlocked%20tiles%20interocked%20roof%20tiles%20tiled%20roof%20regent%20renown%20rounded%20tiles%20medieva_normal.png"
		},
		{
			"mimeType":"image/png",
			"name":"01392-3252335151-tiled roof, doubleroman, grovebury, interlocked tiles, interocked roof tiles, tiled roof, regent, renown, rounded tiles, medieva",
			"uri":"textures/01392-3252335151-tiled%20roof%20doubleroman%20grovebury%20interlocked%20tiles%20interocked%20roof%20tiles%20tiled%20roof%20regent%20renown%20rounded%20tiles%20medieva.png"
		}
	],
	"skins":[
		{
			"inverseBindMatrices":4,
			"joints":[
				2,
				1,
				4,
				3,
				6,
				5,
				8,
				7
			],
			"name":"Roof_DoublePitched_Corner"
		}
	],
	"accessors":[
		{
			"bufferView":0,
			"componentType":5126,
			"count":22,
			"max":[
				0.5,
				1.1502501964569092,
				3.818423266466198e-08
			],
			"min":[
				3.818422200652094e-08,
				-5.960465898624534e-08,
				-0.49999988079071045
			],
			"type":"VEC3"
		},
		{
			"bufferView":1,
			"componentType":5126,
			"count":22,
			"type":"VEC2"
		},
		{
			"bufferView":2,
			"componentType":5126,
			"count":22,
			"type":"VEC3"
		},
		{
			"bufferView":3,
			"componentType":5123,
			"count":30,
			"type":"SCALAR"
		},
		{
			"bufferView":4,
			"componentType":5126,
			"count":8,
			"type":"MAT4"
		}
	],
	"bufferViews":[
		{
			"buffer":0,
			"byteLength":264,
			"byteOffset":0,
			"target":34962
		},
		{
			"buffer":0,
			"byteLength":176,
			"byteOffset":264,
			"target":34962
		},
		{
			"buffer":0,
			"byteLength":264,
			"byteOffset":440,
			"target":34962
		},
		{
			"buffer":0,
			"byteLength":60,
			"byteOffset":704,
			"target":34963
		},
		{
			"buffer":0,
			"byteLength":512,
			"byteOffset":764
		}
	],
	"samplers":[
		{
			"magFilter":9729,
			"minFilter":9987
		}
	],
	"buffers":[
		{
			"byteLength":1276,
			"uri":"roof_double_pitched_corner.bin"
		}
	]
}
