{
	"asset":{
		"copyright":"CC0 dedication by Aziroshin in 2023, Switzerland",
		"generator":"Khronos glTF Blender I/O v3.5.30",
		"version":"2.0"
	},
	"extensionsUsed":[
		"KHR_materials_specular",
		"KHR_materials_ior"
	],
	"scene":0,
	"scenes":[
		{
			"name":"Scene",
			"nodes":[
				13
			]
		}
	],
	"nodes":[
		{
			"mesh":0,
			"name":"Roof_DoublePitched_ForkedGableWing_Mesh",
			"scale":[
				0.17428231239318848,
				0.28323447704315186,
				0.28323447704315186
			]
		},
		{
			"name":"Bottom_Left_Front_Tail",
			"translation":[
				0,
				0.09999997168779373,
				2.7755575615628914e-17
			]
		},
		{
			"children":[
				1
			],
			"name":"Bottom_Left_Front",
			"translation":[
				0,
				-1.1920928955078125e-07,
				2.6475177605789213e-10
			]
		},
		{
			"name":"Bottom_Right_Front_Tail",
			"translation":[
				0,
				0.09999997168779373,
				2.7755575615628914e-17
			]
		},
		{
			"children":[
				3
			],
			"name":"Bottom_Right_Front",
			"translation":[
				0.5,
				-1.1920928955078125e-07,
				2.6474822334421333e-10
			]
		},
		{
			"name":"Bottom_Center_Front_Tail",
			"translation":[
				2.9802322387695312e-08,
				0.10000003129243851,
				-3.725290298461914e-09
			]
		},
		{
			"children":[
				5
			],
			"name":"Bottom_Center_Front",
			"translation":[
				0.2500000596046448,
				-5.960464477539063e-08,
				-0.04187112674117088
			]
		},
		{
			"name":"Top_Center_Front_Tail",
			"translation":[
				2.9802322387695312e-08,
				0.10000002384185791,
				-5.820766091346741e-11
			]
		},
		{
			"children":[
				7
			],
			"name":"Top_Center_Front",
			"translation":[
				0.2500000298023224,
				1.1502494812011719,
				-0.0009709754958748817
			]
		},
		{
			"name":"Top_Left_Back_Tail",
			"translation":[
				-2.842170943040401e-14,
				0.10000026226043701,
				-2.9802322387695312e-08
			]
		},
		{
			"children":[
				9
			],
			"name":"Top_Left_Back",
			"translation":[
				-3.5762786865234375e-07,
				1.1502504348754883,
				-0.4999997615814209
			]
		},
		{
			"name":"Top_Right_Back_Tail",
			"translation":[
				5.960464477539063e-08,
				0.10000026226043701,
				-2.9802322387695312e-08
			]
		},
		{
			"children":[
				11
			],
			"name":"Top_Right_Back",
			"translation":[
				0.5000002384185791,
				1.1502504348754883,
				-0.499999463558197
			]
		},
		{
			"children":[
				0,
				2,
				4,
				6,
				8,
				10,
				12
			],
			"name":"Roof_DoublePitched_ForkedGableWing"
		}
	],
	"materials":[
		{
			"doubleSided":true,
			"extensions":{
				"KHR_materials_specular":{
					"specularColorFactor":[
						0.118567882488869,
						0.118567882488869,
						0.118567882488869
					]
				},
				"KHR_materials_ior":{
					"ior":1.4500000476837158
				}
			},
			"name":"rect_roof",
			"normalTexture":{
				"index":0
			},
			"pbrMetallicRoughness":{
				"baseColorTexture":{
					"index":1
				},
				"metallicFactor":0,
				"roughnessFactor":0.800000011920929
			}
		},
		{
			"doubleSided":true,
			"name":"roof_facade",
			"normalTexture":{
				"index":2,
				"scale":0.4000000059604645
			},
			"pbrMetallicRoughness":{
				"baseColorTexture":{
					"index":3
				},
				"metallicFactor":0,
				"roughnessFactor":0.5
			}
		},
		{
			"doubleSided":true,
			"name":"roof_fascia",
			"normalTexture":{
				"index":4,
				"scale":0.4000000059604645
			},
			"pbrMetallicRoughness":{
				"baseColorTexture":{
					"index":5
				},
				"metallicFactor":0,
				"roughnessFactor":0.5
			}
		},
		{
			"doubleSided":true,
			"name":"roof_soffit",
			"pbrMetallicRoughness":{
				"baseColorTexture":{
					"index":6
				},
				"metallicFactor":0,
				"roughnessFactor":0.5
			}
		}
	],
	"meshes":[
		{
			"name":"Mesh",
			"primitives":[
				{
					"attributes":{
						"POSITION":0,
						"TEXCOORD_0":1,
						"NORMAL":2
					},
					"indices":3,
					"material":0
				},
				{
					"attributes":{
						"POSITION":4,
						"TEXCOORD_0":5,
						"NORMAL":6
					},
					"indices":7,
					"material":1
				},
				{
					"attributes":{
						"POSITION":8,
						"TEXCOORD_0":9,
						"NORMAL":10
					},
					"indices":11,
					"material":2
				},
				{
					"attributes":{
						"POSITION":12,
						"TEXCOORD_0":13,
						"NORMAL":14
					},
					"indices":15,
					"material":3
				}
			]
		}
	],
	"textures":[
		{
			"sampler":0,
			"source":0
		},
		{
			"sampler":0,
			"source":1
		},
		{
			"sampler":0,
			"source":2
		},
		{
			"sampler":0,
			"source":3
		},
		{
			"sampler":0,
			"source":4
		},
		{
			"sampler":0,
			"source":5
		},
		{
			"sampler":0,
			"source":5
		}
	],
	"images":[
		{
			"mimeType":"image/png",
			"name":"01392-3252335151-tiled roof, doubleroman, grovebury, interlocked tiles, interocked roof tiles, tiled roof, regent, renown, rounded tiles, medieva_normal",
			"uri":"textures/01392-3252335151-tiled%20roof%20doubleroman%20grovebury%20interlocked%20tiles%20interocked%20roof%20tiles%20tiled%20roof%20regent%20renown%20rounded%20tiles%20medieva_normal.png"
		},
		{
			"mimeType":"image/png",
			"name":"01392-3252335151-tiled roof, doubleroman, grovebury, interlocked tiles, interocked roof tiles, tiled roof, regent, renown, rounded tiles, medieva",
			"uri":"textures/01392-3252335151-tiled%20roof%20doubleroman%20grovebury%20interlocked%20tiles%20interocked%20roof%20tiles%20tiled%20roof%20regent%20renown%20rounded%20tiles%20medieva.png"
		},
		{
			"mimeType":"image/png",
			"name":"roof_facade_normal",
			"uri":"textures/roof_facade_normal.png"
		},
		{
			"mimeType":"image/png",
			"name":"roof_facade",
			"uri":"textures/roof_facade.png"
		},
		{
			"mimeType":"image/png",
			"name":"dark_wood_a_1.4_from_mitsua_01488-4241078918-Ebony wood planks, wood grain, inside of tree, dark wood, wooden planks, wenge, dark wood slab, anime manga watercolor drawing_normal",
			"uri":"textures/dark_wood_a_1_4_from_mitsua_01488-4241078918-Ebony%20wood%20planks%20wood%20grain%20inside%20of%20tree%20dark%20wood%20wooden%20planks%20wenge%20dark%20wood%20slab%20anime%20manga%20watercolor%20drawing_normal.png"
		},
		{
			"mimeType":"image/png",
			"name":"dark_wood_a_1.4_from_mitsua_01488-4241078918-Ebony wood planks, wood grain, inside of tree, dark wood, wooden planks, wenge, dark wood slab, anime manga watercolor drawing",
			"uri":"textures/dark_wood_a_1_4_from_mitsua_01488-4241078918-Ebony%20wood%20planks%20wood%20grain%20inside%20of%20tree%20dark%20wood%20wooden%20planks%20wenge%20dark%20wood%20slab%20anime%20manga%20watercolor%20drawing.png"
		}
	],
	"skins":[
		{
			"inverseBindMatrices":16,
			"joints":[
				2,
				1,
				4,
				3,
				6,
				5,
				8,
				7,
				10,
				9,
				12,
				11
			],
			"name":"Roof_DoublePitched_ForkedGableWing"
		}
	],
	"accessors":[
		{
			"bufferView":0,
			"componentType":5126,
			"count":102,
			"max":[
				2.868910312652588,
				4.061124801635742,
				0.0022062344942241907
			],
			"min":[
				-1.426786184310913e-06,
				-1.119032049246016e-07,
				-1.7653206586837769
			],
			"type":"VEC3"
		},
		{
			"bufferView":1,
			"componentType":5126,
			"count":102,
			"type":"VEC2"
		},
		{
			"bufferView":2,
			"componentType":5126,
			"count":102,
			"type":"VEC3"
		},
		{
			"bufferView":3,
			"componentType":5123,
			"count":150,
			"type":"SCALAR"
		},
		{
			"bufferView":4,
			"componentType":5126,
			"count":29,
			"max":[
				2.722323417663574,
				3.687565326690674,
				-0.14611755311489105
			],
			"min":[
				0.14658543467521667,
				1.265153741769609e-07,
				-0.14954586327075958
			],
			"type":"VEC3"
		},
		{
			"bufferView":5,
			"componentType":5126,
			"count":29,
			"type":"VEC2"
		},
		{
			"bufferView":6,
			"componentType":5126,
			"count":29,
			"type":"VEC3"
		},
		{
			"bufferView":7,
			"componentType":5123,
			"count":54,
			"type":"SCALAR"
		},
		{
			"bufferView":8,
			"componentType":5126,
			"count":22,
			"max":[
				2.8689088821411133,
				4.061120510101318,
				0.0022062344942241907
			],
			"min":[
				0,
				-1.119032049246016e-07,
				4.881752779795079e-10
			],
			"type":"VEC3"
		},
		{
			"bufferView":9,
			"componentType":5126,
			"count":22,
			"type":"VEC2"
		},
		{
			"bufferView":10,
			"componentType":5126,
			"count":22,
			"type":"VEC3"
		},
		{
			"bufferView":11,
			"componentType":5123,
			"count":48,
			"type":"SCALAR"
		},
		{
			"bufferView":12,
			"componentType":5126,
			"count":24,
			"max":[
				2.7223236560821533,
				3.687565326690674,
				4.881752779795079e-10
			],
			"min":[
				0.14658522605895996,
				1.265153741769609e-07,
				-0.14954574406147003
			],
			"type":"VEC3"
		},
		{
			"bufferView":13,
			"componentType":5126,
			"count":24,
			"type":"VEC2"
		},
		{
			"bufferView":14,
			"componentType":5126,
			"count":24,
			"type":"VEC3"
		},
		{
			"bufferView":15,
			"componentType":5123,
			"count":36,
			"type":"SCALAR"
		},
		{
			"bufferView":16,
			"componentType":5126,
			"count":12,
			"type":"MAT4"
		}
	],
	"bufferViews":[
		{
			"buffer":0,
			"byteLength":1224,
			"byteOffset":0,
			"target":34962
		},
		{
			"buffer":0,
			"byteLength":816,
			"byteOffset":1224,
			"target":34962
		},
		{
			"buffer":0,
			"byteLength":1224,
			"byteOffset":2040,
			"target":34962
		},
		{
			"buffer":0,
			"byteLength":300,
			"byteOffset":3264,
			"target":34963
		},
		{
			"buffer":0,
			"byteLength":348,
			"byteOffset":3564,
			"target":34962
		},
		{
			"buffer":0,
			"byteLength":232,
			"byteOffset":3912,
			"target":34962
		},
		{
			"buffer":0,
			"byteLength":348,
			"byteOffset":4144,
			"target":34962
		},
		{
			"buffer":0,
			"byteLength":108,
			"byteOffset":4492,
			"target":34963
		},
		{
			"buffer":0,
			"byteLength":264,
			"byteOffset":4600,
			"target":34962
		},
		{
			"buffer":0,
			"byteLength":176,
			"byteOffset":4864,
			"target":34962
		},
		{
			"buffer":0,
			"byteLength":264,
			"byteOffset":5040,
			"target":34962
		},
		{
			"buffer":0,
			"byteLength":96,
			"byteOffset":5304,
			"target":34963
		},
		{
			"buffer":0,
			"byteLength":288,
			"byteOffset":5400,
			"target":34962
		},
		{
			"buffer":0,
			"byteLength":192,
			"byteOffset":5688,
			"target":34962
		},
		{
			"buffer":0,
			"byteLength":288,
			"byteOffset":5880,
			"target":34962
		},
		{
			"buffer":0,
			"byteLength":72,
			"byteOffset":6168,
			"target":34963
		},
		{
			"buffer":0,
			"byteLength":768,
			"byteOffset":6240
		}
	],
	"samplers":[
		{
			"magFilter":9729,
			"minFilter":9987
		}
	],
	"buffers":[
		{
			"byteLength":7008,
			"uri":"roof_double_pitched_forked_gable_wing.bin"
		}
	]
}
